<mxfile host="app.diagrams.net" modified="2024-05-04T20:22:23.410Z" agent="Mozilla/5.0 (Windows NT 10.0; Win64; x64) AppleWebKit/537.36 (KHTML, like Gecko) Chrome/124.0.0.0 Safari/537.36" etag="Zcg1Tfn6DCf4yTtxUu0e" version="24.3.1" type="device">
  <diagram name="Page-1" id="aWn13E6g_DDnTC5fJ1gc">
    <mxGraphModel dx="3259" dy="2260" grid="1" gridSize="10" guides="1" tooltips="1" connect="1" arrows="1" fold="1" page="1" pageScale="1" pageWidth="850" pageHeight="1100" math="0" shadow="0">
      <root>
        <mxCell id="0" />
        <mxCell id="1" parent="0" />
        <mxCell id="E8rKskPZGD8GV1xpa8sR-4" value="&lt;span style=&quot;box-sizing: border-box; font-weight: var(--base-text-weight-semibold, 600); color: rgb(31, 35, 40); font-family: -apple-system, BlinkMacSystemFont, &amp;quot;Segoe UI&amp;quot;, &amp;quot;Noto Sans&amp;quot;, Helvetica, Arial, sans-serif, &amp;quot;Apple Color Emoji&amp;quot;, &amp;quot;Segoe UI Emoji&amp;quot;; font-size: 23px; text-align: left; background-color: rgb(255, 255, 255);&quot;&gt;PharmacistID&lt;/span&gt;&lt;span style=&quot;color: rgb(31, 35, 40); font-family: -apple-system, BlinkMacSystemFont, &amp;quot;Segoe UI&amp;quot;, &amp;quot;Noto Sans&amp;quot;, Helvetica, Arial, sans-serif, &amp;quot;Apple Color Emoji&amp;quot;, &amp;quot;Segoe UI Emoji&amp;quot;; font-size: 23px; text-align: left; background-color: rgb(255, 255, 255);&quot;&gt;&amp;nbsp;&lt;/span&gt;" style="ellipse;whiteSpace=wrap;html=1;align=center;fontStyle=4;fontSize=23;" vertex="1" parent="1">
          <mxGeometry x="-140" y="30" width="180" height="60" as="geometry" />
        </mxCell>
        <mxCell id="E8rKskPZGD8GV1xpa8sR-5" value="&lt;span style=&quot;box-sizing: border-box; font-weight: var(--base-text-weight-semibold, 600); color: rgb(31, 35, 40); font-family: -apple-system, BlinkMacSystemFont, &amp;quot;Segoe UI&amp;quot;, &amp;quot;Noto Sans&amp;quot;, Helvetica, Arial, sans-serif, &amp;quot;Apple Color Emoji&amp;quot;, &amp;quot;Segoe UI Emoji&amp;quot;; text-align: left; background-color: rgb(255, 255, 255); font-size: 30px;&quot;&gt;&lt;font style=&quot;font-size: 30px;&quot;&gt;Pharmacist&lt;/font&gt;&lt;/span&gt;" style="whiteSpace=wrap;html=1;align=center;fontSize=30;" vertex="1" parent="1">
          <mxGeometry x="50" y="120" width="170" height="60" as="geometry" />
        </mxCell>
        <mxCell id="E8rKskPZGD8GV1xpa8sR-7" value="Â ContactInfo" style="ellipse;whiteSpace=wrap;align=center;fontSize=18;" vertex="1" parent="1">
          <mxGeometry x="-200" y="235" width="190" height="40" as="geometry" />
        </mxCell>
        <mxCell id="E8rKskPZGD8GV1xpa8sR-8" value="" style="endArrow=none;html=1;rounded=0;exitX=1;exitY=0.5;exitDx=0;exitDy=0;entryX=0;entryY=1;entryDx=0;entryDy=0;" edge="1" parent="1" source="E8rKskPZGD8GV1xpa8sR-7" target="E8rKskPZGD8GV1xpa8sR-5">
          <mxGeometry relative="1" as="geometry">
            <mxPoint x="50" y="280" as="sourcePoint" />
            <mxPoint x="210" y="280" as="targetPoint" />
          </mxGeometry>
        </mxCell>
        <mxCell id="E8rKskPZGD8GV1xpa8sR-9" value="" style="endArrow=none;html=1;rounded=0;exitX=1;exitY=0.5;exitDx=0;exitDy=0;entryX=0;entryY=0;entryDx=0;entryDy=0;" edge="1" parent="1" source="E8rKskPZGD8GV1xpa8sR-65" target="E8rKskPZGD8GV1xpa8sR-5">
          <mxGeometry relative="1" as="geometry">
            <mxPoint x="90" y="159.99999999999977" as="sourcePoint" />
            <mxPoint x="210" y="280" as="targetPoint" />
          </mxGeometry>
        </mxCell>
        <mxCell id="E8rKskPZGD8GV1xpa8sR-10" value="" style="endArrow=none;html=1;rounded=0;exitX=1;exitY=0.5;exitDx=0;exitDy=0;entryX=0.25;entryY=0;entryDx=0;entryDy=0;" edge="1" parent="1" source="E8rKskPZGD8GV1xpa8sR-4" target="E8rKskPZGD8GV1xpa8sR-5">
          <mxGeometry relative="1" as="geometry">
            <mxPoint x="50" y="280" as="sourcePoint" />
            <mxPoint x="210" y="280" as="targetPoint" />
          </mxGeometry>
        </mxCell>
        <mxCell id="E8rKskPZGD8GV1xpa8sR-11" value="&lt;p style=&quot;box-sizing: border-box; margin-top: 16px; margin-bottom: 16px; color: rgb(31, 35, 40); font-family: -apple-system, BlinkMacSystemFont, &amp;quot;Segoe UI&amp;quot;, &amp;quot;Noto Sans&amp;quot;, Helvetica, Arial, sans-serif, &amp;quot;Apple Color Emoji&amp;quot;, &amp;quot;Segoe UI Emoji&amp;quot;; text-align: left; background-color: rgb(255, 255, 255);&quot; dir=&quot;auto&quot;&gt;&lt;span style=&quot;box-sizing: border-box; font-weight: var(--base-text-weight-semibold, 600);&quot;&gt;&lt;font style=&quot;font-size: 25px;&quot;&gt;Patient&lt;/font&gt;&lt;/span&gt;&lt;/p&gt;&lt;div&gt;&lt;span style=&quot;box-sizing: border-box; font-weight: var(--base-text-weight-semibold, 600);&quot;&gt;&lt;br&gt;&lt;/span&gt;&lt;/div&gt;&lt;ul style=&quot;box-sizing: border-box; padding-left: 2em; margin-top: 0px; margin-bottom: 0px; color: rgb(31, 35, 40); font-family: -apple-system, BlinkMacSystemFont, &amp;quot;Segoe UI&amp;quot;, &amp;quot;Noto Sans&amp;quot;, Helvetica, Arial, sans-serif, &amp;quot;Apple Color Emoji&amp;quot;, &amp;quot;Segoe UI Emoji&amp;quot;; font-size: 16px; text-align: left; background-color: rgb(255, 255, 255);&quot; dir=&quot;auto&quot;&gt;&lt;/ul&gt;" style="whiteSpace=wrap;html=1;align=center;" vertex="1" parent="1">
          <mxGeometry x="-70" y="400" width="190" height="60" as="geometry" />
        </mxCell>
        <mxCell id="E8rKskPZGD8GV1xpa8sR-12" value="&lt;span style=&quot;box-sizing: border-box; font-weight: var(--base-text-weight-semibold, 600); color: rgb(31, 35, 40); font-family: -apple-system, BlinkMacSystemFont, &amp;quot;Segoe UI&amp;quot;, &amp;quot;Noto Sans&amp;quot;, Helvetica, Arial, sans-serif, &amp;quot;Apple Color Emoji&amp;quot;, &amp;quot;Segoe UI Emoji&amp;quot;; font-size: 23px; text-align: left; background-color: rgb(255, 255, 255);&quot;&gt;PatientID&lt;/span&gt;&lt;span style=&quot;color: rgb(31, 35, 40); font-family: -apple-system, BlinkMacSystemFont, &amp;quot;Segoe UI&amp;quot;, &amp;quot;Noto Sans&amp;quot;, Helvetica, Arial, sans-serif, &amp;quot;Apple Color Emoji&amp;quot;, &amp;quot;Segoe UI Emoji&amp;quot;; font-size: 23px; text-align: left; background-color: rgb(255, 255, 255);&quot;&gt;&amp;nbsp;&lt;/span&gt;" style="ellipse;whiteSpace=wrap;html=1;align=center;fontStyle=4;fontSize=23;" vertex="1" parent="1">
          <mxGeometry x="-10" y="570" width="140" height="70" as="geometry" />
        </mxCell>
        <mxCell id="E8rKskPZGD8GV1xpa8sR-14" value="ContactInfo" style="ellipse;whiteSpace=wrap;align=center;fontSize=20;" vertex="1" parent="1">
          <mxGeometry x="-280" y="395" width="130" height="60" as="geometry" />
        </mxCell>
        <mxCell id="E8rKskPZGD8GV1xpa8sR-15" value="InsuranceDetails" style="ellipse;whiteSpace=wrap;align=center;fontSize=20;" vertex="1" parent="1">
          <mxGeometry x="-400" y="310" width="170" height="70" as="geometry" />
        </mxCell>
        <mxCell id="E8rKskPZGD8GV1xpa8sR-16" value="" style="endArrow=none;html=1;rounded=0;exitX=1;exitY=0.5;exitDx=0;exitDy=0;entryX=0;entryY=0;entryDx=0;entryDy=0;" edge="1" parent="1" source="E8rKskPZGD8GV1xpa8sR-15" target="E8rKskPZGD8GV1xpa8sR-11">
          <mxGeometry relative="1" as="geometry">
            <mxPoint x="160" y="290" as="sourcePoint" />
            <mxPoint x="320" y="290" as="targetPoint" />
          </mxGeometry>
        </mxCell>
        <mxCell id="E8rKskPZGD8GV1xpa8sR-17" value="" style="endArrow=none;html=1;rounded=0;exitX=1;exitY=0.5;exitDx=0;exitDy=0;entryX=0;entryY=1;entryDx=0;entryDy=0;" edge="1" parent="1" source="E8rKskPZGD8GV1xpa8sR-14" target="E8rKskPZGD8GV1xpa8sR-11">
          <mxGeometry relative="1" as="geometry">
            <mxPoint x="50" y="260" as="sourcePoint" />
            <mxPoint x="210" y="260" as="targetPoint" />
          </mxGeometry>
        </mxCell>
        <mxCell id="E8rKskPZGD8GV1xpa8sR-18" value="" style="endArrow=none;html=1;rounded=0;exitX=1;exitY=0.5;exitDx=0;exitDy=0;entryX=0.25;entryY=1;entryDx=0;entryDy=0;" edge="1" parent="1" source="E8rKskPZGD8GV1xpa8sR-60" target="E8rKskPZGD8GV1xpa8sR-11">
          <mxGeometry relative="1" as="geometry">
            <mxPoint x="65.0051006962617" y="480.5077057814228" as="sourcePoint" />
            <mxPoint x="210" y="260" as="targetPoint" />
          </mxGeometry>
        </mxCell>
        <mxCell id="E8rKskPZGD8GV1xpa8sR-19" value="" style="endArrow=none;html=1;rounded=0;entryX=0.5;entryY=0;entryDx=0;entryDy=0;exitX=0.75;exitY=1;exitDx=0;exitDy=0;" edge="1" parent="1" source="E8rKskPZGD8GV1xpa8sR-11" target="E8rKskPZGD8GV1xpa8sR-12">
          <mxGeometry relative="1" as="geometry">
            <mxPoint x="50" y="260" as="sourcePoint" />
            <mxPoint x="210" y="260" as="targetPoint" />
          </mxGeometry>
        </mxCell>
        <mxCell id="E8rKskPZGD8GV1xpa8sR-20" value="&lt;span style=&quot;box-sizing: border-box; font-weight: var(--base-text-weight-semibold, 600); color: rgb(31, 35, 40); font-family: -apple-system, BlinkMacSystemFont, &amp;quot;Segoe UI&amp;quot;, &amp;quot;Noto Sans&amp;quot;, Helvetica, Arial, sans-serif, &amp;quot;Apple Color Emoji&amp;quot;, &amp;quot;Segoe UI Emoji&amp;quot;; font-size: 23px; text-align: left; background-color: rgb(255, 255, 255);&quot;&gt;Prescription&lt;/span&gt;" style="whiteSpace=wrap;html=1;align=center;" vertex="1" parent="1">
          <mxGeometry x="600" y="120" width="190" height="60" as="geometry" />
        </mxCell>
        <mxCell id="E8rKskPZGD8GV1xpa8sR-21" value="&lt;span style=&quot;box-sizing: border-box; font-weight: var(--base-text-weight-semibold, 600); color: rgb(31, 35, 40); font-family: -apple-system, BlinkMacSystemFont, &amp;quot;Segoe UI&amp;quot;, &amp;quot;Noto Sans&amp;quot;, Helvetica, Arial, sans-serif, &amp;quot;Apple Color Emoji&amp;quot;, &amp;quot;Segoe UI Emoji&amp;quot;; font-size: 17px; text-align: left; background-color: rgb(255, 255, 255);&quot;&gt;PrescriptionID&lt;/span&gt;&lt;span style=&quot;color: rgb(31, 35, 40); font-family: -apple-system, BlinkMacSystemFont, &amp;quot;Segoe UI&amp;quot;, &amp;quot;Noto Sans&amp;quot;, Helvetica, Arial, sans-serif, &amp;quot;Apple Color Emoji&amp;quot;, &amp;quot;Segoe UI Emoji&amp;quot;; font-size: 17px; text-align: left; background-color: rgb(255, 255, 255);&quot;&gt;&amp;nbsp;&lt;/span&gt;" style="ellipse;whiteSpace=wrap;html=1;align=center;fontStyle=4;fontSize=17;" vertex="1" parent="1">
          <mxGeometry x="690" y="220" width="210" height="60" as="geometry" />
        </mxCell>
        <mxCell id="E8rKskPZGD8GV1xpa8sR-22" value="DatePrescribed" style="ellipse;whiteSpace=wrap;align=center;fontSize=19;" vertex="1" parent="1">
          <mxGeometry x="840" y="40" width="150" height="70" as="geometry" />
        </mxCell>
        <mxCell id="E8rKskPZGD8GV1xpa8sR-23" value="RefillsRemaining" style="ellipse;whiteSpace=wrap;align=center;fontSize=19;" vertex="1" parent="1">
          <mxGeometry x="480" y="10" width="150" height="80" as="geometry" />
        </mxCell>
        <mxCell id="E8rKskPZGD8GV1xpa8sR-24" value="Duration" style="ellipse;whiteSpace=wrap;align=center;fontSize=19;" vertex="1" parent="1">
          <mxGeometry x="670" y="-10" width="150" height="70" as="geometry" />
        </mxCell>
        <mxCell id="E8rKskPZGD8GV1xpa8sR-25" value="" style="endArrow=none;html=1;rounded=0;exitX=1;exitY=1;exitDx=0;exitDy=0;entryX=0.25;entryY=0;entryDx=0;entryDy=0;" edge="1" parent="1" source="E8rKskPZGD8GV1xpa8sR-23" target="E8rKskPZGD8GV1xpa8sR-20">
          <mxGeometry relative="1" as="geometry">
            <mxPoint x="480" y="230" as="sourcePoint" />
            <mxPoint x="608" y="120" as="targetPoint" />
          </mxGeometry>
        </mxCell>
        <mxCell id="E8rKskPZGD8GV1xpa8sR-26" value="" style="endArrow=none;html=1;rounded=0;exitX=0.349;exitY=1.029;exitDx=0;exitDy=0;exitPerimeter=0;entryX=0.75;entryY=0;entryDx=0;entryDy=0;" edge="1" parent="1" source="E8rKskPZGD8GV1xpa8sR-24" target="E8rKskPZGD8GV1xpa8sR-20">
          <mxGeometry relative="1" as="geometry">
            <mxPoint x="500" y="200" as="sourcePoint" />
            <mxPoint x="660" y="200" as="targetPoint" />
          </mxGeometry>
        </mxCell>
        <mxCell id="E8rKskPZGD8GV1xpa8sR-27" value="" style="endArrow=none;html=1;rounded=0;entryX=0;entryY=1;entryDx=0;entryDy=0;exitX=1;exitY=0.25;exitDx=0;exitDy=0;" edge="1" parent="1" source="E8rKskPZGD8GV1xpa8sR-20" target="E8rKskPZGD8GV1xpa8sR-22">
          <mxGeometry relative="1" as="geometry">
            <mxPoint x="500" y="200" as="sourcePoint" />
            <mxPoint x="660" y="200" as="targetPoint" />
          </mxGeometry>
        </mxCell>
        <mxCell id="E8rKskPZGD8GV1xpa8sR-28" value="" style="endArrow=none;html=1;rounded=0;entryX=0.5;entryY=0;entryDx=0;entryDy=0;exitX=1;exitY=1;exitDx=0;exitDy=0;" edge="1" parent="1" source="E8rKskPZGD8GV1xpa8sR-20" target="E8rKskPZGD8GV1xpa8sR-21">
          <mxGeometry relative="1" as="geometry">
            <mxPoint x="500" y="200" as="sourcePoint" />
            <mxPoint x="660" y="200" as="targetPoint" />
          </mxGeometry>
        </mxCell>
        <mxCell id="E8rKskPZGD8GV1xpa8sR-29" value="&lt;p style=&quot;box-sizing: border-box; margin-top: 16px; margin-bottom: 16px; color: rgb(31, 35, 40); font-family: -apple-system, BlinkMacSystemFont, &amp;quot;Segoe UI&amp;quot;, &amp;quot;Noto Sans&amp;quot;, Helvetica, Arial, sans-serif, &amp;quot;Apple Color Emoji&amp;quot;, &amp;quot;Segoe UI Emoji&amp;quot;; text-align: left; background-color: rgb(255, 255, 255);&quot; dir=&quot;auto&quot;&gt;&lt;span style=&quot;box-sizing: border-box; font-weight: var(--base-text-weight-semibold, 600);&quot;&gt;&lt;font style=&quot;font-size: 19px;&quot;&gt;Medication&lt;/font&gt;&lt;/span&gt;&lt;/p&gt;&lt;ul style=&quot;box-sizing: border-box; padding-left: 2em; margin-top: 0px; margin-bottom: 0px; color: rgb(31, 35, 40); font-family: -apple-system, BlinkMacSystemFont, &amp;quot;Segoe UI&amp;quot;, &amp;quot;Noto Sans&amp;quot;, Helvetica, Arial, sans-serif, &amp;quot;Apple Color Emoji&amp;quot;, &amp;quot;Segoe UI Emoji&amp;quot;; font-size: 16px; text-align: left; background-color: rgb(255, 255, 255);&quot; dir=&quot;auto&quot;&gt;&lt;/ul&gt;" style="whiteSpace=wrap;html=1;align=center;" vertex="1" parent="1">
          <mxGeometry x="590" y="470" width="210" height="60" as="geometry" />
        </mxCell>
        <mxCell id="E8rKskPZGD8GV1xpa8sR-30" value="&lt;span style=&quot;box-sizing: border-box; font-weight: var(--base-text-weight-semibold, 600); color: rgb(31, 35, 40); font-family: -apple-system, BlinkMacSystemFont, &amp;quot;Segoe UI&amp;quot;, &amp;quot;Noto Sans&amp;quot;, Helvetica, Arial, sans-serif, &amp;quot;Apple Color Emoji&amp;quot;, &amp;quot;Segoe UI Emoji&amp;quot;; font-size: 19px; text-align: left; background-color: rgb(255, 255, 255);&quot;&gt;MedicationID&lt;/span&gt;&lt;span style=&quot;color: rgb(31, 35, 40); font-family: -apple-system, BlinkMacSystemFont, &amp;quot;Segoe UI&amp;quot;, &amp;quot;Noto Sans&amp;quot;, Helvetica, Arial, sans-serif, &amp;quot;Apple Color Emoji&amp;quot;, &amp;quot;Segoe UI Emoji&amp;quot;; font-size: 19px; text-align: left; background-color: rgb(255, 255, 255);&quot;&gt;&amp;nbsp;&lt;/span&gt;" style="ellipse;whiteSpace=wrap;html=1;align=center;fontStyle=4;fontSize=19;" vertex="1" parent="1">
          <mxGeometry x="980" y="325" width="160" height="70" as="geometry" />
        </mxCell>
        <mxCell id="E8rKskPZGD8GV1xpa8sR-31" value="StockLevel" style="ellipse;whiteSpace=wrap;align=center;fontSize=19;" vertex="1" parent="1">
          <mxGeometry x="950" y="540" width="140" height="60" as="geometry" />
        </mxCell>
        <mxCell id="E8rKskPZGD8GV1xpa8sR-32" value="PricePerUnit" style="ellipse;whiteSpace=wrap;align=center;fontSize=19;" vertex="1" parent="1">
          <mxGeometry x="1020" y="430" width="140" height="70" as="geometry" />
        </mxCell>
        <mxCell id="E8rKskPZGD8GV1xpa8sR-33" value="Manufacturer" style="ellipse;whiteSpace=wrap;align=center;fontSize=20;" vertex="1" parent="1">
          <mxGeometry x="707.5" y="570" width="175" height="50" as="geometry" />
        </mxCell>
        <mxCell id="E8rKskPZGD8GV1xpa8sR-35" value="" style="endArrow=none;html=1;rounded=0;entryX=1;entryY=0.5;entryDx=0;entryDy=0;exitX=0.5;exitY=0;exitDx=0;exitDy=0;" edge="1" parent="1" source="E8rKskPZGD8GV1xpa8sR-29" target="E8rKskPZGD8GV1xpa8sR-70">
          <mxGeometry relative="1" as="geometry">
            <mxPoint x="650" y="400" as="sourcePoint" />
            <mxPoint x="870" y="380" as="targetPoint" />
          </mxGeometry>
        </mxCell>
        <mxCell id="E8rKskPZGD8GV1xpa8sR-36" value="" style="endArrow=none;html=1;rounded=0;entryX=0;entryY=1;entryDx=0;entryDy=0;exitX=1;exitY=0;exitDx=0;exitDy=0;" edge="1" parent="1" source="E8rKskPZGD8GV1xpa8sR-29" target="E8rKskPZGD8GV1xpa8sR-30">
          <mxGeometry relative="1" as="geometry">
            <mxPoint x="850" y="200" as="sourcePoint" />
            <mxPoint x="1010" y="200" as="targetPoint" />
          </mxGeometry>
        </mxCell>
        <mxCell id="E8rKskPZGD8GV1xpa8sR-37" value="" style="endArrow=none;html=1;rounded=0;entryX=0.007;entryY=0.343;entryDx=0;entryDy=0;entryPerimeter=0;exitX=1;exitY=0.5;exitDx=0;exitDy=0;" edge="1" parent="1" source="E8rKskPZGD8GV1xpa8sR-29" target="E8rKskPZGD8GV1xpa8sR-32">
          <mxGeometry relative="1" as="geometry">
            <mxPoint x="850" y="200" as="sourcePoint" />
            <mxPoint x="1010" y="200" as="targetPoint" />
          </mxGeometry>
        </mxCell>
        <mxCell id="E8rKskPZGD8GV1xpa8sR-38" value="" style="endArrow=none;html=1;rounded=0;entryX=0;entryY=0;entryDx=0;entryDy=0;exitX=1;exitY=1;exitDx=0;exitDy=0;" edge="1" parent="1" source="E8rKskPZGD8GV1xpa8sR-29" target="E8rKskPZGD8GV1xpa8sR-31">
          <mxGeometry relative="1" as="geometry">
            <mxPoint x="950" y="500" as="sourcePoint" />
            <mxPoint x="1010" y="200" as="targetPoint" />
          </mxGeometry>
        </mxCell>
        <mxCell id="E8rKskPZGD8GV1xpa8sR-39" value="" style="endArrow=none;html=1;rounded=0;entryX=1;entryY=0;entryDx=0;entryDy=0;exitX=0.5;exitY=1;exitDx=0;exitDy=0;" edge="1" parent="1" source="E8rKskPZGD8GV1xpa8sR-29" target="E8rKskPZGD8GV1xpa8sR-33">
          <mxGeometry relative="1" as="geometry">
            <mxPoint x="850" y="200" as="sourcePoint" />
            <mxPoint x="1010" y="200" as="targetPoint" />
          </mxGeometry>
        </mxCell>
        <mxCell id="E8rKskPZGD8GV1xpa8sR-40" value="&lt;span style=&quot;box-sizing: border-box; font-weight: var(--base-text-weight-semibold, 600); color: rgb(31, 35, 40); font-family: -apple-system, BlinkMacSystemFont, &amp;quot;Segoe UI&amp;quot;, &amp;quot;Noto Sans&amp;quot;, Helvetica, Arial, sans-serif, &amp;quot;Apple Color Emoji&amp;quot;, &amp;quot;Segoe UI Emoji&amp;quot;; font-size: 30px; text-align: left; background-color: rgb(255, 255, 255);&quot;&gt;Supplier&lt;/span&gt;" style="whiteSpace=wrap;html=1;align=center;" vertex="1" parent="1">
          <mxGeometry x="140" y="710" width="170" height="60" as="geometry" />
        </mxCell>
        <mxCell id="E8rKskPZGD8GV1xpa8sR-41" value="&lt;span style=&quot;box-sizing: border-box; font-weight: var(--base-text-weight-semibold, 600); color: rgb(31, 35, 40); font-family: -apple-system, BlinkMacSystemFont, &amp;quot;Segoe UI&amp;quot;, &amp;quot;Noto Sans&amp;quot;, Helvetica, Arial, sans-serif, &amp;quot;Apple Color Emoji&amp;quot;, &amp;quot;Segoe UI Emoji&amp;quot;; font-size: 27px; text-align: left; background-color: rgb(255, 255, 255);&quot;&gt;SupplierID&lt;/span&gt;&lt;span style=&quot;color: rgb(31, 35, 40); font-family: -apple-system, BlinkMacSystemFont, &amp;quot;Segoe UI&amp;quot;, &amp;quot;Noto Sans&amp;quot;, Helvetica, Arial, sans-serif, &amp;quot;Apple Color Emoji&amp;quot;, &amp;quot;Segoe UI Emoji&amp;quot;; font-size: 27px; text-align: left; background-color: rgb(255, 255, 255);&quot;&gt;&amp;nbsp;&lt;/span&gt;" style="ellipse;whiteSpace=wrap;html=1;align=center;fontStyle=4;fontSize=27;" vertex="1" parent="1">
          <mxGeometry x="-100" y="680" width="170" height="70" as="geometry" />
        </mxCell>
        <mxCell id="E8rKskPZGD8GV1xpa8sR-42" value="Name" style="ellipse;whiteSpace=wrap;align=center;fontSize=29;" vertex="1" parent="1">
          <mxGeometry y="800" width="160" height="80" as="geometry" />
        </mxCell>
        <mxCell id="E8rKskPZGD8GV1xpa8sR-43" value="ContactInfo" style="ellipse;whiteSpace=wrap;align=center;fontSize=27;" vertex="1" parent="1">
          <mxGeometry x="160" y="900" width="220" height="70" as="geometry" />
        </mxCell>
        <mxCell id="E8rKskPZGD8GV1xpa8sR-44" value="" style="endArrow=none;html=1;rounded=0;exitX=1;exitY=0;exitDx=0;exitDy=0;entryX=0.25;entryY=1;entryDx=0;entryDy=0;" edge="1" parent="1" source="E8rKskPZGD8GV1xpa8sR-42" target="E8rKskPZGD8GV1xpa8sR-40">
          <mxGeometry relative="1" as="geometry">
            <mxPoint x="260" y="600" as="sourcePoint" />
            <mxPoint x="180" y="790" as="targetPoint" />
          </mxGeometry>
        </mxCell>
        <mxCell id="E8rKskPZGD8GV1xpa8sR-45" value="" style="endArrow=none;html=1;rounded=0;exitX=1;exitY=0.5;exitDx=0;exitDy=0;entryX=0;entryY=0.5;entryDx=0;entryDy=0;" edge="1" parent="1" source="E8rKskPZGD8GV1xpa8sR-41" target="E8rKskPZGD8GV1xpa8sR-40">
          <mxGeometry relative="1" as="geometry">
            <mxPoint x="460" y="510" as="sourcePoint" />
            <mxPoint x="620" y="510" as="targetPoint" />
          </mxGeometry>
        </mxCell>
        <mxCell id="E8rKskPZGD8GV1xpa8sR-46" value="" style="endArrow=none;html=1;rounded=0;exitX=0.5;exitY=0;exitDx=0;exitDy=0;entryX=0.75;entryY=1;entryDx=0;entryDy=0;" edge="1" parent="1" source="E8rKskPZGD8GV1xpa8sR-43" target="E8rKskPZGD8GV1xpa8sR-40">
          <mxGeometry relative="1" as="geometry">
            <mxPoint x="430" y="690" as="sourcePoint" />
            <mxPoint x="590" y="690" as="targetPoint" />
            <Array as="points" />
          </mxGeometry>
        </mxCell>
        <mxCell id="E8rKskPZGD8GV1xpa8sR-47" value="&lt;p style=&quot;box-sizing: border-box; margin-top: 16px; margin-bottom: 16px; color: rgb(31, 35, 40); font-family: -apple-system, BlinkMacSystemFont, &amp;quot;Segoe UI&amp;quot;, &amp;quot;Noto Sans&amp;quot;, Helvetica, Arial, sans-serif, &amp;quot;Apple Color Emoji&amp;quot;, &amp;quot;Segoe UI Emoji&amp;quot;; font-size: 16px; text-align: left; background-color: rgb(255, 255, 255);&quot; dir=&quot;auto&quot;&gt;&lt;span style=&quot;box-sizing: border-box; font-weight: var(--base-text-weight-semibold, 600); font-size: 24px;&quot;&gt;Inventory Order&lt;/span&gt;&lt;/p&gt;&lt;ul style=&quot;box-sizing: border-box; padding-left: 2em; margin-top: 0px; margin-bottom: 0px; color: rgb(31, 35, 40); font-family: -apple-system, BlinkMacSystemFont, &amp;quot;Segoe UI&amp;quot;, &amp;quot;Noto Sans&amp;quot;, Helvetica, Arial, sans-serif, &amp;quot;Apple Color Emoji&amp;quot;, &amp;quot;Segoe UI Emoji&amp;quot;; font-size: 16px; text-align: left; background-color: rgb(255, 255, 255);&quot; dir=&quot;auto&quot;&gt;&lt;/ul&gt;" style="whiteSpace=wrap;html=1;align=center;" vertex="1" parent="1">
          <mxGeometry x="820" y="800" width="200" height="60" as="geometry" />
        </mxCell>
        <mxCell id="E8rKskPZGD8GV1xpa8sR-48" value="&lt;span style=&quot;box-sizing: border-box; font-weight: var(--base-text-weight-semibold, 600); color: rgb(31, 35, 40); font-family: -apple-system, BlinkMacSystemFont, &amp;quot;Segoe UI&amp;quot;, &amp;quot;Noto Sans&amp;quot;, Helvetica, Arial, sans-serif, &amp;quot;Apple Color Emoji&amp;quot;, &amp;quot;Segoe UI Emoji&amp;quot;; font-size: 24px; text-align: left; background-color: rgb(255, 255, 255);&quot;&gt;OrderID&lt;/span&gt;&lt;span style=&quot;color: rgb(31, 35, 40); font-family: -apple-system, BlinkMacSystemFont, &amp;quot;Segoe UI&amp;quot;, &amp;quot;Noto Sans&amp;quot;, Helvetica, Arial, sans-serif, &amp;quot;Apple Color Emoji&amp;quot;, &amp;quot;Segoe UI Emoji&amp;quot;; font-size: 24px; text-align: left; background-color: rgb(255, 255, 255);&quot;&gt;&amp;nbsp;&lt;/span&gt;" style="ellipse;whiteSpace=wrap;html=1;align=center;fontStyle=4;fontSize=24;" vertex="1" parent="1">
          <mxGeometry x="940" y="950" width="150" height="40" as="geometry" />
        </mxCell>
        <mxCell id="E8rKskPZGD8GV1xpa8sR-49" value="ReceivedDate" style="ellipse;whiteSpace=wrap;align=center;fontSize=25;" vertex="1" parent="1">
          <mxGeometry x="1140" y="860" width="240" height="60" as="geometry" />
        </mxCell>
        <mxCell id="E8rKskPZGD8GV1xpa8sR-50" value="OrderDate" style="ellipse;whiteSpace=wrap;align=center;fontSize=24;" vertex="1" parent="1">
          <mxGeometry x="1100" y="710" width="130" height="60" as="geometry" />
        </mxCell>
        <mxCell id="E8rKskPZGD8GV1xpa8sR-51" value="QuantityOrdered" style="ellipse;whiteSpace=wrap;align=center;fontSize=22;" vertex="1" parent="1">
          <mxGeometry x="790" y="710" width="230" height="40" as="geometry" />
        </mxCell>
        <mxCell id="E8rKskPZGD8GV1xpa8sR-52" value="" style="endArrow=none;html=1;rounded=0;entryX=0.25;entryY=0;entryDx=0;entryDy=0;exitX=0;exitY=1;exitDx=0;exitDy=0;" edge="1" parent="1" source="E8rKskPZGD8GV1xpa8sR-51" target="E8rKskPZGD8GV1xpa8sR-47">
          <mxGeometry relative="1" as="geometry">
            <mxPoint x="690" y="690" as="sourcePoint" />
            <mxPoint x="850" y="690" as="targetPoint" />
          </mxGeometry>
        </mxCell>
        <mxCell id="E8rKskPZGD8GV1xpa8sR-53" value="" style="endArrow=none;html=1;rounded=0;entryX=1;entryY=0;entryDx=0;entryDy=0;exitX=0;exitY=0.5;exitDx=0;exitDy=0;" edge="1" parent="1" source="E8rKskPZGD8GV1xpa8sR-50" target="E8rKskPZGD8GV1xpa8sR-47">
          <mxGeometry relative="1" as="geometry">
            <mxPoint x="450" y="430" as="sourcePoint" />
            <mxPoint x="610" y="430" as="targetPoint" />
          </mxGeometry>
        </mxCell>
        <mxCell id="E8rKskPZGD8GV1xpa8sR-54" value="" style="endArrow=none;html=1;rounded=0;entryX=0;entryY=0.5;entryDx=0;entryDy=0;exitX=1;exitY=1;exitDx=0;exitDy=0;" edge="1" parent="1" source="E8rKskPZGD8GV1xpa8sR-47" target="E8rKskPZGD8GV1xpa8sR-49">
          <mxGeometry relative="1" as="geometry">
            <mxPoint x="450" y="430" as="sourcePoint" />
            <mxPoint x="610" y="430" as="targetPoint" />
          </mxGeometry>
        </mxCell>
        <mxCell id="E8rKskPZGD8GV1xpa8sR-55" value="" style="endArrow=none;html=1;rounded=0;exitX=0.5;exitY=0;exitDx=0;exitDy=0;entryX=0.75;entryY=1;entryDx=0;entryDy=0;" edge="1" parent="1" source="E8rKskPZGD8GV1xpa8sR-48" target="E8rKskPZGD8GV1xpa8sR-47">
          <mxGeometry relative="1" as="geometry">
            <mxPoint x="450" y="430" as="sourcePoint" />
            <mxPoint x="940" y="900" as="targetPoint" />
          </mxGeometry>
        </mxCell>
        <mxCell id="E8rKskPZGD8GV1xpa8sR-56" value="L_NAME" style="ellipse;whiteSpace=wrap;html=1;align=center;fontSize=24;" vertex="1" parent="1">
          <mxGeometry x="-160" y="840" width="150" height="70" as="geometry" />
        </mxCell>
        <mxCell id="E8rKskPZGD8GV1xpa8sR-57" value="F_NAME" style="ellipse;whiteSpace=wrap;html=1;align=center;fontSize=19;" vertex="1" parent="1">
          <mxGeometry x="-90" y="940" width="170" height="50" as="geometry" />
        </mxCell>
        <mxCell id="E8rKskPZGD8GV1xpa8sR-58" value="" style="endArrow=none;html=1;rounded=0;entryX=0;entryY=0.5;entryDx=0;entryDy=0;exitX=1;exitY=0;exitDx=0;exitDy=0;" edge="1" parent="1" source="E8rKskPZGD8GV1xpa8sR-56" target="E8rKskPZGD8GV1xpa8sR-42">
          <mxGeometry relative="1" as="geometry">
            <mxPoint x="-80" y="740" as="sourcePoint" />
            <mxPoint x="80" y="740" as="targetPoint" />
          </mxGeometry>
        </mxCell>
        <mxCell id="E8rKskPZGD8GV1xpa8sR-59" value="" style="endArrow=none;html=1;rounded=0;exitX=0.5;exitY=1;exitDx=0;exitDy=0;entryX=1;entryY=0;entryDx=0;entryDy=0;" edge="1" parent="1" source="E8rKskPZGD8GV1xpa8sR-42" target="E8rKskPZGD8GV1xpa8sR-57">
          <mxGeometry relative="1" as="geometry">
            <mxPoint x="170" y="810" as="sourcePoint" />
            <mxPoint x="330" y="810" as="targetPoint" />
          </mxGeometry>
        </mxCell>
        <mxCell id="E8rKskPZGD8GV1xpa8sR-60" value="Name" style="ellipse;whiteSpace=wrap;align=center;fontSize=29;" vertex="1" parent="1">
          <mxGeometry x="-190" y="505" width="160" height="80" as="geometry" />
        </mxCell>
        <mxCell id="E8rKskPZGD8GV1xpa8sR-61" value="L_NAME" style="ellipse;whiteSpace=wrap;html=1;align=center;fontSize=24;" vertex="1" parent="1">
          <mxGeometry x="-370" y="510" width="150" height="70" as="geometry" />
        </mxCell>
        <mxCell id="E8rKskPZGD8GV1xpa8sR-62" value="F_NAME" style="ellipse;whiteSpace=wrap;html=1;align=center;fontSize=19;" vertex="1" parent="1">
          <mxGeometry x="-330" y="680" width="170" height="50" as="geometry" />
        </mxCell>
        <mxCell id="E8rKskPZGD8GV1xpa8sR-63" value="" style="endArrow=none;html=1;rounded=0;entryX=0;entryY=0.5;entryDx=0;entryDy=0;exitX=1;exitY=0;exitDx=0;exitDy=0;" edge="1" parent="1" source="E8rKskPZGD8GV1xpa8sR-61" target="E8rKskPZGD8GV1xpa8sR-60">
          <mxGeometry relative="1" as="geometry">
            <mxPoint x="-290" y="410" as="sourcePoint" />
            <mxPoint x="-130" y="410" as="targetPoint" />
          </mxGeometry>
        </mxCell>
        <mxCell id="E8rKskPZGD8GV1xpa8sR-64" value="" style="endArrow=none;html=1;rounded=0;exitX=0.5;exitY=1;exitDx=0;exitDy=0;entryX=1;entryY=0;entryDx=0;entryDy=0;" edge="1" parent="1" source="E8rKskPZGD8GV1xpa8sR-60" target="E8rKskPZGD8GV1xpa8sR-62">
          <mxGeometry relative="1" as="geometry">
            <mxPoint x="-40" y="480" as="sourcePoint" />
            <mxPoint x="120" y="480" as="targetPoint" />
          </mxGeometry>
        </mxCell>
        <mxCell id="E8rKskPZGD8GV1xpa8sR-65" value="Name" style="ellipse;whiteSpace=wrap;align=center;fontSize=29;" vertex="1" parent="1">
          <mxGeometry x="-240" y="120" width="160" height="80" as="geometry" />
        </mxCell>
        <mxCell id="E8rKskPZGD8GV1xpa8sR-66" value="L_NAME" style="ellipse;whiteSpace=wrap;html=1;align=center;fontSize=24;" vertex="1" parent="1">
          <mxGeometry x="-470" y="110" width="150" height="70" as="geometry" />
        </mxCell>
        <mxCell id="E8rKskPZGD8GV1xpa8sR-67" value="F_NAME" style="ellipse;whiteSpace=wrap;html=1;align=center;fontSize=19;" vertex="1" parent="1">
          <mxGeometry x="-410" y="225" width="170" height="50" as="geometry" />
        </mxCell>
        <mxCell id="E8rKskPZGD8GV1xpa8sR-68" value="" style="endArrow=none;html=1;rounded=0;entryX=0;entryY=0.5;entryDx=0;entryDy=0;exitX=1;exitY=0;exitDx=0;exitDy=0;" edge="1" parent="1" source="E8rKskPZGD8GV1xpa8sR-66" target="E8rKskPZGD8GV1xpa8sR-65">
          <mxGeometry relative="1" as="geometry">
            <mxPoint x="-320" y="60" as="sourcePoint" />
            <mxPoint x="-160" y="60" as="targetPoint" />
          </mxGeometry>
        </mxCell>
        <mxCell id="E8rKskPZGD8GV1xpa8sR-69" value="" style="endArrow=none;html=1;rounded=0;exitX=0.5;exitY=1;exitDx=0;exitDy=0;entryX=1;entryY=0;entryDx=0;entryDy=0;" edge="1" parent="1" source="E8rKskPZGD8GV1xpa8sR-65" target="E8rKskPZGD8GV1xpa8sR-67">
          <mxGeometry relative="1" as="geometry">
            <mxPoint x="-70" y="130" as="sourcePoint" />
            <mxPoint x="90" y="130" as="targetPoint" />
          </mxGeometry>
        </mxCell>
        <mxCell id="E8rKskPZGD8GV1xpa8sR-70" value="Name" style="ellipse;whiteSpace=wrap;align=center;fontSize=29;" vertex="1" parent="1">
          <mxGeometry x="850" y="290" width="130" height="65" as="geometry" />
        </mxCell>
        <mxCell id="E8rKskPZGD8GV1xpa8sR-71" value="L_NAME" style="ellipse;whiteSpace=wrap;html=1;align=center;fontSize=24;" vertex="1" parent="1">
          <mxGeometry x="680" y="290" width="150" height="70" as="geometry" />
        </mxCell>
        <mxCell id="E8rKskPZGD8GV1xpa8sR-72" value="F_NAME" style="ellipse;whiteSpace=wrap;html=1;align=center;fontSize=19;" vertex="1" parent="1">
          <mxGeometry x="650" y="370" width="170" height="50" as="geometry" />
        </mxCell>
        <mxCell id="E8rKskPZGD8GV1xpa8sR-73" value="" style="endArrow=none;html=1;rounded=0;entryX=0;entryY=0.5;entryDx=0;entryDy=0;exitX=1;exitY=0;exitDx=0;exitDy=0;" edge="1" parent="1" source="E8rKskPZGD8GV1xpa8sR-71" target="E8rKskPZGD8GV1xpa8sR-70">
          <mxGeometry relative="1" as="geometry">
            <mxPoint x="540" y="240" as="sourcePoint" />
            <mxPoint x="700" y="240" as="targetPoint" />
          </mxGeometry>
        </mxCell>
        <mxCell id="E8rKskPZGD8GV1xpa8sR-74" value="" style="endArrow=none;html=1;rounded=0;exitX=0.5;exitY=1;exitDx=0;exitDy=0;entryX=1;entryY=0;entryDx=0;entryDy=0;" edge="1" parent="1" source="E8rKskPZGD8GV1xpa8sR-70" target="E8rKskPZGD8GV1xpa8sR-72">
          <mxGeometry relative="1" as="geometry">
            <mxPoint x="790" y="310" as="sourcePoint" />
            <mxPoint x="950" y="310" as="targetPoint" />
          </mxGeometry>
        </mxCell>
        <mxCell id="E8rKskPZGD8GV1xpa8sR-80" value="" style="edgeStyle=entityRelationEdgeStyle;fontSize=22;html=1;endArrow=ERoneToMany;rounded=0;exitX=1;exitY=0.5;exitDx=0;exitDy=0;entryX=0;entryY=0.75;entryDx=0;entryDy=0;" edge="1" parent="1" source="E8rKskPZGD8GV1xpa8sR-82" target="E8rKskPZGD8GV1xpa8sR-20">
          <mxGeometry width="100" height="100" relative="1" as="geometry">
            <mxPoint x="400" y="560" as="sourcePoint" />
            <mxPoint x="560" y="170" as="targetPoint" />
            <Array as="points">
              <mxPoint x="430" y="300" />
            </Array>
          </mxGeometry>
        </mxCell>
        <mxCell id="E8rKskPZGD8GV1xpa8sR-82" value="&lt;b&gt;&lt;span style=&quot;font-size:12.0pt;line-height:107%;&lt;br/&gt;font-family:&amp;quot;Aptos&amp;quot;,sans-serif;mso-ascii-theme-font:minor-latin;mso-fareast-font-family:&lt;br/&gt;Aptos;mso-fareast-theme-font:minor-latin;mso-hansi-theme-font:minor-latin;&lt;br/&gt;mso-bidi-font-family:Arial;mso-bidi-theme-font:minor-bidi;mso-ansi-language:&lt;br/&gt;EN-US;mso-fareast-language:EN-US;mso-bidi-language:AR-SA&quot;&gt;HAS (&lt;/span&gt;&lt;/b&gt;&lt;span style=&quot;font-size: 23px; box-sizing: border-box; font-weight: var(--base-text-weight-semibold, 600); color: rgb(31, 35, 40); font-family: -apple-system, BlinkMacSystemFont, &amp;quot;Segoe UI&amp;quot;, &amp;quot;Noto Sans&amp;quot;, Helvetica, Arial, sans-serif, &amp;quot;Apple Color Emoji&amp;quot;, &amp;quot;Segoe UI Emoji&amp;quot;; text-align: left; background-color: rgb(255, 255, 255);&quot;&gt;PatientID&lt;/span&gt;&lt;span style=&quot;font-size: 23px; color: rgb(31, 35, 40); font-family: -apple-system, BlinkMacSystemFont, &amp;quot;Segoe UI&amp;quot;, &amp;quot;Noto Sans&amp;quot;, Helvetica, Arial, sans-serif, &amp;quot;Apple Color Emoji&amp;quot;, &amp;quot;Segoe UI Emoji&amp;quot;; text-align: left; background-color: rgb(255, 255, 255);&quot;&gt;&amp;nbsp;&lt;/span&gt;&lt;b&gt;&lt;span style=&quot;font-size:12.0pt;line-height:107%;&lt;br/&gt;font-family:&amp;quot;Aptos&amp;quot;,sans-serif;mso-ascii-theme-font:minor-latin;mso-fareast-font-family:&lt;br/&gt;Aptos;mso-fareast-theme-font:minor-latin;mso-hansi-theme-font:minor-latin;&lt;br/&gt;mso-bidi-font-family:Arial;mso-bidi-theme-font:minor-bidi;mso-ansi-language:&lt;br/&gt;EN-US;mso-fareast-language:EN-US;mso-bidi-language:AR-SA&quot;&gt;)&lt;/span&gt;&lt;/b&gt;" style="shape=rhombus;perimeter=rhombusPerimeter;whiteSpace=wrap;html=1;align=center;" vertex="1" parent="1">
          <mxGeometry x="280" y="220" width="205" height="130" as="geometry" />
        </mxCell>
        <mxCell id="E8rKskPZGD8GV1xpa8sR-85" value="" style="edgeStyle=entityRelationEdgeStyle;fontSize=12;html=1;endArrow=ERone;endFill=1;rounded=0;entryX=1;entryY=0.5;entryDx=0;entryDy=0;exitX=0;exitY=0.5;exitDx=0;exitDy=0;" edge="1" parent="1" source="E8rKskPZGD8GV1xpa8sR-82" target="E8rKskPZGD8GV1xpa8sR-11">
          <mxGeometry width="100" height="100" relative="1" as="geometry">
            <mxPoint x="400" y="300" as="sourcePoint" />
            <mxPoint x="500" y="200" as="targetPoint" />
          </mxGeometry>
        </mxCell>
        <mxCell id="E8rKskPZGD8GV1xpa8sR-86" value="&lt;b&gt;&lt;span style=&quot;font-size: 12pt; line-height: 17.12px;&quot;&gt;Record (&lt;/span&gt;&lt;/b&gt;&lt;span style=&quot;font-size: 23px; box-sizing: border-box; font-weight: var(--base-text-weight-semibold, 600); color: rgb(31, 35, 40); font-family: -apple-system, BlinkMacSystemFont, &amp;quot;Segoe UI&amp;quot;, &amp;quot;Noto Sans&amp;quot;, Helvetica, Arial, sans-serif, &amp;quot;Apple Color Emoji&amp;quot;, &amp;quot;Segoe UI Emoji&amp;quot;; text-align: left; background-color: rgb(255, 255, 255);&quot;&gt;PharmacistID&lt;/span&gt;&lt;span style=&quot;font-size: 23px; color: rgb(31, 35, 40); font-family: -apple-system, BlinkMacSystemFont, &amp;quot;Segoe UI&amp;quot;, &amp;quot;Noto Sans&amp;quot;, Helvetica, Arial, sans-serif, &amp;quot;Apple Color Emoji&amp;quot;, &amp;quot;Segoe UI Emoji&amp;quot;; text-align: left; background-color: rgb(255, 255, 255);&quot;&gt;&amp;nbsp;&lt;/span&gt;&lt;b&gt;&lt;span style=&quot;font-size: 12pt; line-height: 17.12px;&quot;&gt;)&lt;/span&gt;&lt;/b&gt;" style="shape=rhombus;perimeter=rhombusPerimeter;whiteSpace=wrap;html=1;align=center;" vertex="1" parent="1">
          <mxGeometry x="340" y="80" width="200" height="120" as="geometry" />
        </mxCell>
        <mxCell id="E8rKskPZGD8GV1xpa8sR-88" value="" style="edgeStyle=entityRelationEdgeStyle;fontSize=12;html=1;endArrow=ERoneToMany;rounded=0;entryX=0;entryY=0.25;entryDx=0;entryDy=0;exitX=1;exitY=0.5;exitDx=0;exitDy=0;" edge="1" parent="1" source="E8rKskPZGD8GV1xpa8sR-86" target="E8rKskPZGD8GV1xpa8sR-20">
          <mxGeometry width="100" height="100" relative="1" as="geometry">
            <mxPoint x="490" y="220" as="sourcePoint" />
            <mxPoint x="590" y="120" as="targetPoint" />
            <Array as="points">
              <mxPoint x="580" y="130" />
            </Array>
          </mxGeometry>
        </mxCell>
        <mxCell id="E8rKskPZGD8GV1xpa8sR-89" value="" style="edgeStyle=entityRelationEdgeStyle;fontSize=12;html=1;endArrow=ERone;endFill=1;rounded=0;entryX=1;entryY=0.5;entryDx=0;entryDy=0;exitX=0;exitY=0.5;exitDx=0;exitDy=0;" edge="1" parent="1" source="E8rKskPZGD8GV1xpa8sR-86" target="E8rKskPZGD8GV1xpa8sR-5">
          <mxGeometry width="100" height="100" relative="1" as="geometry">
            <mxPoint x="290" y="290" as="sourcePoint" />
            <mxPoint x="390" y="190" as="targetPoint" />
          </mxGeometry>
        </mxCell>
        <mxCell id="E8rKskPZGD8GV1xpa8sR-90" value="&lt;b&gt;&lt;span style=&quot;font-size: 12pt; line-height: 17.12px;&quot;&gt;HAS(&lt;/span&gt;&lt;/b&gt;&lt;span style=&quot;font-size: 19px; box-sizing: border-box; font-weight: var(--base-text-weight-semibold, 600); color: rgb(31, 35, 40); font-family: -apple-system, BlinkMacSystemFont, &amp;quot;Segoe UI&amp;quot;, &amp;quot;Noto Sans&amp;quot;, Helvetica, Arial, sans-serif, &amp;quot;Apple Color Emoji&amp;quot;, &amp;quot;Segoe UI Emoji&amp;quot;; text-align: left; background-color: rgb(255, 255, 255);&quot;&gt;MedicationID&lt;/span&gt;&lt;span style=&quot;font-size: 19px; color: rgb(31, 35, 40); font-family: -apple-system, BlinkMacSystemFont, &amp;quot;Segoe UI&amp;quot;, &amp;quot;Noto Sans&amp;quot;, Helvetica, Arial, sans-serif, &amp;quot;Apple Color Emoji&amp;quot;, &amp;quot;Segoe UI Emoji&amp;quot;; text-align: left; background-color: rgb(255, 255, 255);&quot;&gt;&amp;nbsp;&lt;/span&gt;&lt;b&gt;&lt;span style=&quot;font-size: 12pt; line-height: 17.12px;&quot;&gt;)&lt;/span&gt;&lt;/b&gt;" style="shape=rhombus;perimeter=rhombusPerimeter;whiteSpace=wrap;html=1;align=center;" vertex="1" parent="1">
          <mxGeometry x="340" y="335" width="240" height="135" as="geometry" />
        </mxCell>
        <mxCell id="E8rKskPZGD8GV1xpa8sR-92" value="" style="edgeStyle=entityRelationEdgeStyle;fontSize=12;html=1;endArrow=ERoneToMany;rounded=0;entryX=0;entryY=1;entryDx=0;entryDy=0;" edge="1" parent="1" target="E8rKskPZGD8GV1xpa8sR-20">
          <mxGeometry width="100" height="100" relative="1" as="geometry">
            <mxPoint x="530" y="365" as="sourcePoint" />
            <mxPoint x="600" y="200" as="targetPoint" />
          </mxGeometry>
        </mxCell>
        <mxCell id="E8rKskPZGD8GV1xpa8sR-93" value="" style="edgeStyle=entityRelationEdgeStyle;fontSize=12;html=1;endArrow=ERoneToMany;rounded=0;entryX=0;entryY=0.5;entryDx=0;entryDy=0;exitX=0.5;exitY=1;exitDx=0;exitDy=0;" edge="1" parent="1" source="E8rKskPZGD8GV1xpa8sR-90" target="E8rKskPZGD8GV1xpa8sR-29">
          <mxGeometry width="100" height="100" relative="1" as="geometry">
            <mxPoint x="420" y="560" as="sourcePoint" />
            <mxPoint x="520" y="460" as="targetPoint" />
          </mxGeometry>
        </mxCell>
        <mxCell id="E8rKskPZGD8GV1xpa8sR-95" value="&lt;b style=&quot;font-size: 21px;&quot;&gt;&lt;span style=&quot;font-size: 12pt; line-height: 17.12px;&quot;&gt;ORDER(&lt;/span&gt;&lt;span style=&quot;line-height: 17.12px;&quot;&gt;&lt;font style=&quot;font-size: 21px;&quot;&gt;I&lt;/font&gt;&lt;/span&gt;&lt;/b&gt;&lt;font style=&quot;font-size: 21px;&quot;&gt;&lt;span style=&quot;box-sizing: border-box; font-weight: var(--base-text-weight-semibold, 600); color: rgb(31, 35, 40); font-family: -apple-system, BlinkMacSystemFont, &amp;quot;Segoe UI&amp;quot;, &amp;quot;Noto Sans&amp;quot;, Helvetica, Arial, sans-serif, &amp;quot;Apple Color Emoji&amp;quot;, &amp;quot;Segoe UI Emoji&amp;quot;; text-align: left; background-color: rgb(255, 255, 255);&quot;&gt;SupplierID&lt;/span&gt;&lt;span style=&quot;color: rgb(31, 35, 40); font-family: -apple-system, BlinkMacSystemFont, &amp;quot;Segoe UI&amp;quot;, &amp;quot;Noto Sans&amp;quot;, Helvetica, Arial, sans-serif, &amp;quot;Apple Color Emoji&amp;quot;, &amp;quot;Segoe UI Emoji&amp;quot;; text-align: left; background-color: rgb(255, 255, 255);&quot;&gt;&amp;nbsp;&lt;/span&gt;&lt;/font&gt;" style="shape=rhombus;perimeter=rhombusPerimeter;whiteSpace=wrap;html=1;align=center;" vertex="1" parent="1">
          <mxGeometry x="470" y="820" width="230" height="140" as="geometry" />
        </mxCell>
        <mxCell id="E8rKskPZGD8GV1xpa8sR-96" value="" style="edgeStyle=entityRelationEdgeStyle;fontSize=12;html=1;endArrow=ERoneToMany;rounded=0;entryX=0;entryY=0;entryDx=0;entryDy=0;exitX=1;exitY=0.5;exitDx=0;exitDy=0;" edge="1" parent="1" source="E8rKskPZGD8GV1xpa8sR-94" target="E8rKskPZGD8GV1xpa8sR-47">
          <mxGeometry width="100" height="100" relative="1" as="geometry">
            <mxPoint x="730" y="870" as="sourcePoint" />
            <mxPoint x="830" y="770" as="targetPoint" />
          </mxGeometry>
        </mxCell>
        <mxCell id="E8rKskPZGD8GV1xpa8sR-94" value="&lt;b&gt;&lt;span style=&quot;font-size: 12pt; line-height: 17.12px;&quot;&gt;ORDER(&lt;/span&gt;&lt;/b&gt;&lt;span style=&quot;font-size: 19px; box-sizing: border-box; font-weight: var(--base-text-weight-semibold, 600); color: rgb(31, 35, 40); font-family: -apple-system, BlinkMacSystemFont, &amp;quot;Segoe UI&amp;quot;, &amp;quot;Noto Sans&amp;quot;, Helvetica, Arial, sans-serif, &amp;quot;Apple Color Emoji&amp;quot;, &amp;quot;Segoe UI Emoji&amp;quot;; text-align: left; background-color: rgb(255, 255, 255);&quot;&gt;MedicationID&lt;/span&gt;&lt;span style=&quot;font-size: 19px; color: rgb(31, 35, 40); font-family: -apple-system, BlinkMacSystemFont, &amp;quot;Segoe UI&amp;quot;, &amp;quot;Noto Sans&amp;quot;, Helvetica, Arial, sans-serif, &amp;quot;Apple Color Emoji&amp;quot;, &amp;quot;Segoe UI Emoji&amp;quot;; text-align: left; background-color: rgb(255, 255, 255);&quot;&gt;&amp;nbsp;&lt;/span&gt;&lt;b&gt;&lt;span style=&quot;font-size: 12pt; line-height: 17.12px;&quot;&gt;)&lt;/span&gt;&lt;/b&gt;" style="shape=rhombus;perimeter=rhombusPerimeter;whiteSpace=wrap;html=1;align=center;" vertex="1" parent="1">
          <mxGeometry x="410" y="660" width="230" height="140" as="geometry" />
        </mxCell>
        <mxCell id="E8rKskPZGD8GV1xpa8sR-100" value="" style="edgeStyle=entityRelationEdgeStyle;fontSize=12;html=1;endArrow=ERoneToMany;rounded=0;entryX=0;entryY=0.75;entryDx=0;entryDy=0;exitX=0.5;exitY=0;exitDx=0;exitDy=0;" edge="1" parent="1" source="E8rKskPZGD8GV1xpa8sR-94" target="E8rKskPZGD8GV1xpa8sR-29">
          <mxGeometry width="100" height="100" relative="1" as="geometry">
            <mxPoint x="520" y="730" as="sourcePoint" />
            <mxPoint x="570" y="540" as="targetPoint" />
          </mxGeometry>
        </mxCell>
        <mxCell id="E8rKskPZGD8GV1xpa8sR-101" value="" style="edgeStyle=entityRelationEdgeStyle;fontSize=12;html=1;endArrow=ERoneToMany;rounded=0;exitX=1;exitY=0.5;exitDx=0;exitDy=0;entryX=0;entryY=0.5;entryDx=0;entryDy=0;" edge="1" parent="1" source="E8rKskPZGD8GV1xpa8sR-95" target="E8rKskPZGD8GV1xpa8sR-47">
          <mxGeometry width="100" height="100" relative="1" as="geometry">
            <mxPoint x="720" y="920" as="sourcePoint" />
            <mxPoint x="820" y="820" as="targetPoint" />
          </mxGeometry>
        </mxCell>
        <mxCell id="E8rKskPZGD8GV1xpa8sR-102" value="" style="edgeStyle=entityRelationEdgeStyle;fontSize=12;html=1;endArrow=ERone;endFill=1;rounded=0;entryX=1;entryY=0.5;entryDx=0;entryDy=0;exitX=0;exitY=0.5;exitDx=0;exitDy=0;" edge="1" parent="1" source="E8rKskPZGD8GV1xpa8sR-95" target="E8rKskPZGD8GV1xpa8sR-40">
          <mxGeometry width="100" height="100" relative="1" as="geometry">
            <mxPoint x="420" y="950" as="sourcePoint" />
            <mxPoint x="520" y="850" as="targetPoint" />
          </mxGeometry>
        </mxCell>
      </root>
    </mxGraphModel>
  </diagram>
</mxfile>
